<svg xmlns="http://www.w3.org/2000/svg" width="65" height="65" viewBox="0 0 65 65">
  <metadata><?xpacket begin="﻿" id="W5M0MpCehiHzreSzNTczkc9d"?>
<x:xmpmeta xmlns:x="adobe:ns:meta/" x:xmptk="Adobe XMP Core 5.6-c142 79.160924, 2017/07/13-01:06:39        ">
   <rdf:RDF xmlns:rdf="http://www.w3.org/1999/02/22-rdf-syntax-ns#">
      <rdf:Description rdf:about=""/>
   </rdf:RDF>
</x:xmpmeta>
                                                                                                    
                                                                                                    
                                                                                                    
                                                                                                    
                                                                                                    
                                                                                                    
                                                                                                    
                                                                                                    
                                                                                                    
                                                                                                    
                                                                                                    
                                                                                                    
                                                                                                    
                                                                                                    
                                                                                                    
                                                                                                    
                                                                                                    
                                                                                                    
                                                                                                    
                                                                                                    
                           
<?xpacket end="w"?></metadata>
<defs>
    <style>
      .cls-1 {
        fill: #ff6700;
        fill-rule: evenodd;
      }
    </style>
  </defs>
  <path id="Features_icon_02" data-name="Features icon 02" class="cls-1" d="M943.7,2809.88l-7.706-2.57a24.978,24.978,0,0,0-1.057-2.54l3.633-7.27a1.908,1.908,0,0,0-.355-2.2l-5.387-5.38a1.9,1.9,0,0,0-2.2-.36l-7.271,3.63a24,24,0,0,0-2.54-1.05l-2.572-7.83a1.907,1.907,0,0,0-1.809-1.31h-7.618a1.907,1.907,0,0,0-1.809,1.31l-2.572,7.83a24,24,0,0,0-2.54,1.05l-7.271-3.63a1.9,1.9,0,0,0-2.2.36l-5.386,5.38a1.906,1.906,0,0,0-.356,2.2l3.634,7.27a24.737,24.737,0,0,0-1.055,2.54l-7.948,2.57a1.9,1.9,0,0,0-1.318,1.81v7.62a1.9,1.9,0,0,0,1.318,1.81l7.948,2.57a24.737,24.737,0,0,0,1.055,2.54l-3.634,7.27a1.908,1.908,0,0,0,.355,2.2l5.387,5.38a1.9,1.9,0,0,0,2.2.36l7.27-3.63a24.083,24.083,0,0,0,2.54,1.05l2.572,7.83a1.907,1.907,0,0,0,1.809,1.31h7.618a1.907,1.907,0,0,0,1.809-1.31l2.572-7.83a24.171,24.171,0,0,0,2.54-1.05l7.269,3.63a1.9,1.9,0,0,0,2.2-.36l5.387-5.38a1.908,1.908,0,0,0,.355-2.2l-3.633-7.27a24.227,24.227,0,0,0,1.057-2.55l7.706-2.57a1.886,1.886,0,0,0,1.3-1.8v-7.62A1.908,1.908,0,0,0,943.7,2809.88Zm-2.506,8.06-7.312,2.43a1.914,1.914,0,0,0-1.22,1.25,20.827,20.827,0,0,1-1.539,3.71,1.909,1.909,0,0,0-.021,1.75l3.449,6.89-3.446,3.45-6.9-3.45a1.892,1.892,0,0,0-1.747.02,20.665,20.665,0,0,1-3.706,1.54,1.9,1.9,0,0,0-1.253,1.23l-2.441,7.43H910.2l-2.441-7.43a1.906,1.906,0,0,0-1.253-1.23,20.635,20.635,0,0,1-3.706-1.54,1.892,1.892,0,0,0-1.747-.02l-6.9,3.45-3.445-3.45,3.449-6.89a1.909,1.909,0,0,0-.021-1.75,20.827,20.827,0,0,1-1.539-3.71,1.9,1.9,0,0,0-1.235-1.25l-7.551-2.45v-4.84l7.551-2.45a1.9,1.9,0,0,0,1.235-1.25,20.827,20.827,0,0,1,1.539-3.71,1.91,1.91,0,0,0,.021-1.75l-3.449-6.9,3.445-3.44,6.9,3.45a1.922,1.922,0,0,0,1.747-.02,19.932,19.932,0,0,1,3.706-1.54,1.906,1.906,0,0,0,1.253-1.23l2.441-7.43h4.86l2.441,7.43a1.9,1.9,0,0,0,1.253,1.23,19.96,19.96,0,0,1,3.706,1.54,1.922,1.922,0,0,0,1.747.02l6.9-3.45,3.446,3.44-3.449,6.9a1.91,1.91,0,0,0,.021,1.75,20.827,20.827,0,0,1,1.539,3.71,1.936,1.936,0,0,0,1.22,1.25l7.312,2.43v4.88h0ZM912.5,2798.36a17.14,17.14,0,1,0,17.139,17.14A17.16,17.16,0,0,0,912.5,2798.36Zm0,30.47a13.33,13.33,0,1,1,13.33-13.33A13.345,13.345,0,0,1,912.5,2828.83Zm0-22.85a9.52,9.52,0,1,0,9.521,9.52A9.532,9.532,0,0,0,912.5,2805.98Zm0,15.23a5.71,5.71,0,1,1,5.713-5.71A5.717,5.717,0,0,1,912.5,2821.21Z" transform="translate(-880 -2783)"/>
</svg>
