<svg xmlns="http://www.w3.org/2000/svg" width="70" height="65" viewBox="0 0 70 65">
  <metadata><?xpacket begin="﻿" id="W5M0MpCehiHzreSzNTczkc9d"?>
<x:xmpmeta xmlns:x="adobe:ns:meta/" x:xmptk="Adobe XMP Core 5.6-c142 79.160924, 2017/07/13-01:06:39        ">
   <rdf:RDF xmlns:rdf="http://www.w3.org/1999/02/22-rdf-syntax-ns#">
      <rdf:Description rdf:about=""/>
   </rdf:RDF>
</x:xmpmeta>
                                                                                                    
                                                                                                    
                                                                                                    
                                                                                                    
                                                                                                    
                                                                                                    
                                                                                                    
                                                                                                    
                                                                                                    
                                                                                                    
                                                                                                    
                                                                                                    
                                                                                                    
                                                                                                    
                                                                                                    
                                                                                                    
                                                                                                    
                                                                                                    
                                                                                                    
                                                                                                    
                           
<?xpacket end="w"?></metadata>
<defs>
    <style>
      .cls-1 {
        fill: #ff6700;
        fill-rule: evenodd;
      }
    </style>
  </defs>
  <path id="Features_icon_03" data-name="Features icon 03" class="cls-1" d="M1526.54,2934.33h-8.2a6.343,6.343,0,0,0-6.15,6.5,6.759,6.759,0,0,0,.35,2.17h-4.94a7.046,7.046,0,0,0,.35-2.17,6.343,6.343,0,0,0-6.15-6.5h-8.21c-10.25,0-18.59,8.75-18.59,19.5v8.67c0,10.75,8.34,19.5,18.59,19.5h32.95c10.18,0,18.46-8.75,18.46-19.5v-8.67C1545,2943.08,1536.72,2934.33,1526.54,2934.33ZM1514.1,2969h-12.3a2.168,2.168,0,0,0,0,4.33h8.2a2.174,2.174,0,0,1,0,4.34h-16.41c-7.99,0-14.49-6.81-14.49-15.17v-8.67c0-8.36,6.5-15.16,14.49-15.16h8.21a2.168,2.168,0,0,1,0,4.33h-8.21a2.168,2.168,0,0,0,0,4.33h20.51a2.174,2.174,0,0,1,0,4.34h-12.3a2.168,2.168,0,0,0,0,4.33h12.3a2.168,2.168,0,0,1,0,4.33h-12.3a2.174,2.174,0,0,0,0,4.34h12.3A2.168,2.168,0,0,1,1514.1,2969Zm26.8-6.5c0,8.36-6.44,15.17-14.36,15.17H1515.8a6.908,6.908,0,0,0-.08-4.57,6.449,6.449,0,0,0,4.53-6.27,6.756,6.756,0,0,1,0-8.66,6.77,6.77,0,0,1,0-8.67,6.759,6.759,0,0,0-.35-2.17h4.59v2.17a15.5,15.5,0,0,0,4.21,10.72,1.968,1.968,0,0,0,2.9,0,2.251,2.251,0,0,0,0-3.06,11.082,11.082,0,0,1-3.01-7.66v-4.33a2.113,2.113,0,0,0-2.05-2.17h-8.2a2.168,2.168,0,0,1,0-4.33h8.2c7.92,0,14.36,6.8,14.36,15.16v8.67Zm-28.85-36.83v-6.5a2.053,2.053,0,1,0-4.1,0v6.5A2.053,2.053,0,1,0,1512.05,2925.67Zm11.84,3.69,4.1-4.33a2.251,2.251,0,0,0,0-3.06,1.968,1.968,0,0,0-2.9,0l-4.1,4.33a2.251,2.251,0,0,0,0,3.06A1.968,1.968,0,0,0,1523.89,2929.36Zm-24.74,0a2.251,2.251,0,0,0,0-3.06l-4.11-4.33a1.968,1.968,0,0,0-2.9,0,2.251,2.251,0,0,0,0,3.06l4.11,4.33A1.968,1.968,0,0,0,1499.15,2929.36Z" transform="translate(-1475 -2917)"/>
</svg>
