<svg xmlns="http://www.w3.org/2000/svg" width="65" height="72" viewBox="0 0 65 72">
  <metadata><?xpacket begin="﻿" id="W5M0MpCehiHzreSzNTczkc9d"?>
<x:xmpmeta xmlns:x="adobe:ns:meta/" x:xmptk="Adobe XMP Core 5.6-c142 79.160924, 2017/07/13-01:06:39        ">
   <rdf:RDF xmlns:rdf="http://www.w3.org/1999/02/22-rdf-syntax-ns#">
      <rdf:Description rdf:about=""/>
   </rdf:RDF>
</x:xmpmeta>
                                                                                                    
                                                                                                    
                                                                                                    
                                                                                                    
                                                                                                    
                                                                                                    
                                                                                                    
                                                                                                    
                                                                                                    
                                                                                                    
                                                                                                    
                                                                                                    
                                                                                                    
                                                                                                    
                                                                                                    
                                                                                                    
                                                                                                    
                                                                                                    
                                                                                                    
                                                                                                    
                           
<?xpacket end="w"?></metadata>
<defs>
    <style>
      .cls-1 {
        fill: #ff6700;
        fill-rule: evenodd;
      }
    </style>
  </defs>
  <path id="Features_icon_01" data-name="Features icon 01" class="cls-1" d="M1509.8,2807.81l0.61-.62v11.91a2.09,2.09,0,1,0,4.18,0v-16.99a2.1,2.1,0,0,0-1.29-1.95,2.059,2.059,0,0,0-2.27.45l-4.18,4.22a2.131,2.131,0,0,0,0,2.98A2.076,2.076,0,0,0,1509.8,2807.81Zm35.01,37.07-9.21-19.95a27.694,27.694,0,0,0,4.01-14.4,27.113,27.113,0,1,0-54.22,0,27.694,27.694,0,0,0,4.01,14.4l-9.21,19.95a2.132,2.132,0,0,0,.36,2.31,2.072,2.072,0,0,0,2.25.56l9.13-3.36,3.32,9.22a2.074,2.074,0,0,0,3.85.17l7.55-16.36a26.65,26.65,0,0,0,11.7,0l7.55,16.36a2.075,2.075,0,0,0,3.85-.17l3.32-9.22,9.13,3.36a2.072,2.072,0,0,0,2.25-.56A2.132,2.132,0,0,0,1544.81,2844.88Zm-47.37,2.51-2.31-6.42a2.139,2.139,0,0,0-1.08-1.19,2.087,2.087,0,0,0-1.59-.07l-6.36,2.34,6.12-13.26a27.3,27.3,0,0,0,10.4,7.39Zm15.06-13.54a23.323,23.323,0,1,1,22.94-23.32A23.157,23.157,0,0,1,1512.5,2833.85Zm20.04,5.86a2.077,2.077,0,0,0-2.67,1.26l-2.31,6.42-5.18-11.21a27.3,27.3,0,0,0,10.4-7.39l6.12,13.26Zm-20.04-48.14a19.037,19.037,0,1,0,18.77,18.96A18.89,18.89,0,0,0,1512.5,2791.57Zm0,33.85a14.822,14.822,0,1,1,14.6-14.89A14.764,14.764,0,0,1,1512.5,2825.42Z" transform="translate(-1480 -2783)"/>
</svg>
