<svg xmlns="http://www.w3.org/2000/svg" width="65" height="65" viewBox="0 0 65 65">
  <metadata><?xpacket begin="﻿" id="W5M0MpCehiHzreSzNTczkc9d"?>
<x:xmpmeta xmlns:x="adobe:ns:meta/" x:xmptk="Adobe XMP Core 5.6-c142 79.160924, 2017/07/13-01:06:39        ">
   <rdf:RDF xmlns:rdf="http://www.w3.org/1999/02/22-rdf-syntax-ns#">
      <rdf:Description rdf:about=""/>
   </rdf:RDF>
</x:xmpmeta>
                                                                                                    
                                                                                                    
                                                                                                    
                                                                                                    
                                                                                                    
                                                                                                    
                                                                                                    
                                                                                                    
                                                                                                    
                                                                                                    
                                                                                                    
                                                                                                    
                                                                                                    
                                                                                                    
                                                                                                    
                                                                                                    
                                                                                                    
                                                                                                    
                                                                                                    
                                                                                                    
                           
<?xpacket end="w"?></metadata>
<defs>
    <style>
      .cls-1 {
        fill: #ff6700;
        fill-rule: evenodd;
      }
    </style>
  </defs>
  <path id="Features_icon_04" data-name="Features icon 04" class="cls-1" d="M912.627,2917c-17.95,0-31.655,15.79-32.461,34.42a9.509,9.509,0,0,0,7.73,11.14,5.713,5.713,0,0,0,11.147-1.76v-15.24a5.718,5.718,0,0,0-4.728-5.62,20.966,20.966,0,0,1,18.312-11.52c7.538,0,14.483,4.5,18.176,11.5a5.719,5.719,0,0,0-4.846,5.64v15.24a5.712,5.712,0,0,0,11.146,1.76,9.433,9.433,0,0,0,4.088-1.77v3.82a13.47,13.47,0,0,1-13.33,13.58h-6.04a5.715,5.715,0,0,0-5.385-7.62h-7.745a5.715,5.715,0,0,0,0,11.43h19.17A16.858,16.858,0,0,0,940,2976.84a17.414,17.414,0,0,0,5-12.23v-11.43C945,2932.84,930.2,2917,912.627,2917Zm-25.01,41.57a5.549,5.549,0,0,1-2.92-2.35,5.28,5.28,0,0,1-.888-3.29,5.52,5.52,0,0,1,3.808-5.14v10.78Zm0.279-14.77a9.622,9.622,0,0,0-3,1.06,33.688,33.688,0,0,1,6.887-13.9,5.583,5.583,0,0,0,1.031,1.42,5.408,5.408,0,0,0,1.365,1,26.716,26.716,0,0,0-4.642,7.92A5.65,5.65,0,0,0,887.9,2943.8Zm7.338,1.76v15.24a1.9,1.9,0,0,1-3.808,0v-15.24A1.9,1.9,0,0,1,895.234,2945.56Zm34.384-15.87a1.736,1.736,0,0,1-2.328.1,23.437,23.437,0,0,0-14.663-5.17,23.9,23.9,0,0,0-14.812,5.19,1.736,1.736,0,0,1-2.306-.12,1.776,1.776,0,0,1-.523-1.27,1.743,1.743,0,0,1,.349-1.05,25.969,25.969,0,0,1,34.325-.16A1.783,1.783,0,0,1,929.618,2929.69Zm-13.182,48.5h-7.745a1.905,1.905,0,0,1,0-3.81h7.745A1.905,1.905,0,0,1,916.436,2978.19Zm17.138-17.39a1.9,1.9,0,0,1-3.808,0v-15.24a1.9,1.9,0,0,1,3.808,0v15.24Zm2.084-19.32a26.846,26.846,0,0,0-4.685-8.11,5.839,5.839,0,0,0,1.338-.99,5.612,5.612,0,0,0,1.043-1.45,33.751,33.751,0,0,1,6.9,14.02,9.493,9.493,0,0,0-3.151-1.15A5.706,5.706,0,0,0,935.658,2941.48Zm1.725,17.09v-10.78A5.719,5.719,0,0,1,937.383,2958.57Z" transform="translate(-880 -2917)"/>
</svg>
