<svg xmlns="http://www.w3.org/2000/svg" width="42" height="40" viewBox="0 0 42 40"><metadata><?xpacket begin="﻿" id="W5M0MpCehiHzreSzNTczkc9d"?><x:xmpmeta xmlns:x="adobe:ns:meta/" x:xmptk="Adobe XMP Core 5.6-c142 79.160924, 2017/07/13-01:06:39"><rdf:RDF xmlns:rdf="http://www.w3.org/1999/02/22-rdf-syntax-ns#"><rdf:Description/></rdf:RDF></x:xmpmeta><?xpacket end="w"?></metadata><defs><style>.cls-1{fill:#fff;fill-rule:evenodd}</style></defs><path id="Packages_icon" d="M1381.94,3538.19a1.224,1.224,0,0,0-.99-0.84l-12.97-1.89-5.79-11.77a1.245,1.245,0,0,0-1.11-.69,1.23,1.23,0,0,0-1.1.69l-5.8,11.77-13.12,1.89a1.224,1.224,0,0,0-1,.84,1.248,1.248,0,0,0,.32,1.27l9.54,9.16-2.22,12.94a1.237,1.237,0,0,0,1.79,1.3l11.59-6.11,11.6,6.11a1.233,1.233,0,0,0,1.78-1.3l-2.21-12.94,9.38-9.17A1.253,1.253,0,0,0,1381.94,3538.19Zm-11.87,9.11a1.247,1.247,0,0,0-.36,1.09l1.91,11.12-9.96-5.25a1.251,1.251,0,0,0-1.15,0l-9.96,5.25,1.9-11.12a1.2,1.2,0,0,0-.36-1.09l-8.18-7.87,11.26-1.62a1.235,1.235,0,0,0,.93-0.68l4.98-10.11,4.98,10.11a1.235,1.235,0,0,0,.93.68l11.14,1.62Z" class="cls-1" data-name="Packages icon" transform="translate(-1340 -3523)"/></svg>