<svg xmlns="http://www.w3.org/2000/svg" width="65" height="65" viewBox="0 0 65 65"><metadata><?xpacket begin="﻿" id="W5M0MpCehiHzreSzNTczkc9d"?><x:xmpmeta xmlns:x="adobe:ns:meta/" x:xmptk="Adobe XMP Core 5.6-c142 79.160924, 2017/07/13-01:06:39"><rdf:RDF xmlns:rdf="http://www.w3.org/1999/02/22-rdf-syntax-ns#"><rdf:Description/></rdf:RDF></x:xmpmeta><?xpacket end="w"?></metadata><defs><style>.cls-1{fill:#ff6700;fill-rule:evenodd}</style></defs><path id="Step_icon_01" d="M1385.84,2265.36a9.513,9.513,0,0,0-6.17-16.76,9.139,9.139,0,0,0-1.9.19v-4h5.71a5.723,5.723,0,0,0,5.71-5.72v-15.23a5.814,5.814,0,0,0-5.71-5.84h-26.79a5.763,5.763,0,0,0-5.39,3.93h-13.78a5.723,5.723,0,0,0-5.71,5.72v11.42a5.723,5.723,0,0,0,5.71,5.72h1.91v4a9.513,9.513,0,0,0-4.27,16.57,13.488,13.488,0,0,0-7.16,11.93v3.8a1.9,1.9,0,0,0,1.9,1.91h22.86a1.9,1.9,0,0,0,1.9-1.91v-3.8a13.488,13.488,0,0,0-7.16-11.93,9.512,9.512,0,0,0-2.37-15.97l4.61-4.6h17.72l6.06,6.06a9.513,9.513,0,0,0-.02,14.51,13.488,13.488,0,0,0-7.16,11.93v3.8a1.9,1.9,0,0,0,1.9,1.91h22.86a1.9,1.9,0,0,0,1.9-1.91v-3.8A13.488,13.488,0,0,0,1385.84,2265.36Zm-34.99,11.93v1.9h-19.04v-1.9A9.521,9.521,0,1,1,1350.85,2277.29Zm-5.48-23.21a5.706,5.706,0,1,1-4.04-1.68h0A5.683,5.683,0,0,1,1345.37,2254.08Zm3.58-13.1a1.9,1.9,0,0,0-1.35.56l-4.37,4.36v-3.02a1.9,1.9,0,0,0-1.9-1.9h-3.81a1.908,1.908,0,0,1-1.9-1.91v-11.42a1.908,1.908,0,0,1,1.9-1.91h13.46v3.81h-9.65a1.905,1.905,0,0,0,0,3.81h9.65v5.71a5.762,5.762,0,0,0,.33,1.91h-2.36Zm30.72,11.42a5.715,5.715,0,1,1-5.71,5.72A5.723,5.723,0,0,1,1379.67,2252.4Zm-10.08-10.86a1.9,1.9,0,0,0-1.35-.56h-11.55a1.908,1.908,0,0,1-1.9-1.91v-15.23a2.022,2.022,0,0,1,1.9-2.03h26.79a2.022,2.022,0,0,1,1.9,2.03v15.23a1.908,1.908,0,0,1-1.9,1.91h-7.62a1.9,1.9,0,0,0-1.9,1.9v3.02Zm19.6,37.65h-19.04v-1.9a9.521,9.521,0,1,1,19.04,0v1.9Z" class="cls-1" data-name="Step icon 01" transform="translate(-1328 -2218)"/></svg>