<svg xmlns="http://www.w3.org/2000/svg" width="57" height="65" viewBox="0 0 57 65">
  <metadata><?xpacket begin="﻿" id="W5M0MpCehiHzreSzNTczkc9d"?>
<x:xmpmeta xmlns:x="adobe:ns:meta/" x:xmptk="Adobe XMP Core 5.6-c142 79.160924, 2017/07/13-01:06:39        ">
   <rdf:RDF xmlns:rdf="http://www.w3.org/1999/02/22-rdf-syntax-ns#">
      <rdf:Description rdf:about=""/>
   </rdf:RDF>
</x:xmpmeta>
                                                                                                    
                                                                                                    
                                                                                                    
                                                                                                    
                                                                                                    
                                                                                                    
                                                                                                    
                                                                                                    
                                                                                                    
                                                                                                    
                                                                                                    
                                                                                                    
                                                                                                    
                                                                                                    
                                                                                                    
                                                                                                    
                                                                                                    
                                                                                                    
                                                                                                    
                                                                                                    
                           
<?xpacket end="w"?></metadata>
<defs>
    <style>
      .cls-1 {
        fill: #ff6700;
        fill-rule: evenodd;
      }
    </style>
  </defs>
  <path id="Step_icon_03" data-name="Step icon 03" class="cls-1" d="M588.8,2249.65l-7.6-15.24a1.852,1.852,0,0,0-1.7-1.05h-38a1.864,1.864,0,0,0-1.7,1.05l-7.6,15.24a1.894,1.894,0,0,0,.267,2.1l26.6,30.6a1.9,1.9,0,0,0,2.865,0l26.6-30.6A1.894,1.894,0,0,0,588.8,2249.65Zm-12.374-12.48-4.849,9.72-7.275-9.72h12.124ZM568.1,2248.6H552.9l7.6-10.16Zm-11.4-11.43-7.275,9.72-4.85-9.72H556.7Zm-15.2,2.35,4.526,9.08h-9.051Zm-3.423,12.88h9.767l9.367,22.01Zm22.422,20.03-8.523-20.03h17.046Zm3.288,1.98,9.366-22.01h9.768Zm11.185-25.81,4.525-9.08,4.526,9.08h-9.051ZM562.4,2223.84v-3.94a1.9,1.9,0,1,0-3.8,0v3.94A1.9,1.9,0,1,0,562.4,2223.84Zm-9.961,5.25a1.9,1.9,0,0,0,0-2.69l-2.686-2.7a1.9,1.9,0,0,0-2.687,2.7l2.687,2.69A1.9,1.9,0,0,0,552.438,2229.09Zm18.808,0,2.687-2.69a1.9,1.9,0,0,0-2.687-2.7l-2.687,2.7A1.9,1.9,0,0,0,571.246,2229.09Z" transform="translate(-532 -2218)"/>
</svg>
