<svg xmlns="http://www.w3.org/2000/svg" width="65" height="65" viewBox="0 0 65 65"><metadata><?xpacket begin="﻿" id="W5M0MpCehiHzreSzNTczkc9d"?><x:xmpmeta xmlns:x="adobe:ns:meta/" x:xmptk="Adobe XMP Core 5.6-c142 79.160924, 2017/07/13-01:06:39"><rdf:RDF xmlns:rdf="http://www.w3.org/1999/02/22-rdf-syntax-ns#"><rdf:Description/></rdf:RDF></x:xmpmeta><?xpacket end="w"?></metadata><defs><style>.cls-1{fill:#ff6700;fill-rule:evenodd}</style></defs><path id="Step_icon_02" d="M992.758,2267.08a13.368,13.368,0,0,0-12.416-10.72,10.052,10.052,0,0,1-6.2-2.99l-4.3-4.3,11.809-11.67,1.356,1.36a1.905,1.905,0,0,0,3.08-.56l6.733-14.81a1.91,1.91,0,0,0-.387-2.14l-2.693-2.69a1.9,1.9,0,0,0-2.134-.39l-14.815,6.73a1.907,1.907,0,0,0-.558,3.08l1.338,1.34-11.809,11.67-4.269-4.27a8.851,8.851,0,0,1-2.839-5.82,13.287,13.287,0,0,0-19.034-11.57,1.91,1.91,0,0,0-.529,3.07l4.335,4.33v2.7H936.73l-4.335-4.34a1.94,1.94,0,0,0-1.67-.53,1.912,1.912,0,0,0-1.4,1.06,13.3,13.3,0,0,0,4.625,16.83,13.169,13.169,0,0,0,6.85,2.21,8.478,8.478,0,0,1,5.058,2.05,5.723,5.723,0,0,0,.172,4.55l-16.37,16.61a5.714,5.714,0,0,0,0,8.07l5.387,5.39a5.725,5.725,0,0,0,8.08,0c0-.01.007-0.01,0.009-0.01l16.361-16.6a5.72,5.72,0,0,0,4.533.16,9.728,9.728,0,0,1,2.317,5.46A13.336,13.336,0,1,0,992.758,2267.08Zm-4.781-44.89,0.827,0.82-5.051,11.11-6.886-6.89Zm-47.027,18.66a9.364,9.364,0,0,1-4.865-1.56,9.523,9.523,0,0,1-4.153-9.27l2.662,2.66a1.937,1.937,0,0,0,1.346.56h5.387a1.911,1.911,0,0,0,1.9-1.91v-5.39a1.9,1.9,0,0,0-.558-1.34l-2.658-2.66a9.471,9.471,0,0,1,10.829,9.08,12.621,12.621,0,0,0,3.952,8.39l4.251,4.25-2.467,2.44-1.355-1.35a5.715,5.715,0,0,0-6.873-.93A12.359,12.359,0,0,0,940.95,2240.85Zm-0.512,37.79a1.906,1.906,0,0,1-2.689,0l-5.387-5.39a1.9,1.9,0,0,1,0-2.69l0.01-.01,16.13-16.37,8.08,8.08Zm22.868-17.73a1.911,1.911,0,0,1-2.693,0l-10.774-10.78a1.9,1.9,0,1,1,2.694-2.69l10.773,10.77A1.914,1.914,0,0,1,963.306,2260.91Zm-1.338-9.42-2.693-2.7,16.987-16.77,2.693,2.69C978.015,2235.64,962.885,2250.58,961.968,2251.49ZM986.4,2276.4a9.517,9.517,0,0,1-16.244-6.25,13.475,13.475,0,0,0-3.236-7.76,5.715,5.715,0,0,0-.925-6.87l-1.338-1.34,2.468-2.44,4.319,4.32a13.749,13.749,0,0,0,8.707,4.1A9.514,9.514,0,0,1,986.4,2276.4Zm-6.733-12.44a5.71,5.71,0,1,0,5.714,5.71A5.717,5.717,0,0,0,979.671,2263.96Zm0,7.62a1.905,1.905,0,1,1,1.9-1.91A1.911,1.911,0,0,1,979.671,2271.58Z" class="cls-1" data-name="Step icon 02" transform="translate(-928 -2218)"/></svg>